<svg width="34" height="34" viewBox="0 0 34 34" fill="none" xmlns="http://www.w3.org/2000/svg">
<circle cx="17" cy="17" r="17" fill="#9F9F9E"/>
<path d="M11 25C11 23.4845 11.602 22.031 12.6737 20.9594C13.7453 19.8878 15.1988 19.2857 16.7143 19.2857C18.2298 19.2857 19.6833 19.8878 20.7549 20.9594C21.8265 22.031 22.4286 23.4845 22.4286 25H21C21 23.8634 20.5485 22.7733 19.7447 21.9695C18.941 21.1658 17.8509 20.7143 16.7143 20.7143C15.5776 20.7143 14.4876 21.1658 13.6838 21.9695C12.8801 22.7733 12.4286 23.8634 12.4286 25H11ZM16.7143 18.5714C14.3464 18.5714 12.4286 16.6536 12.4286 14.2857C12.4286 11.9179 14.3464 10 16.7143 10C19.0821 10 21 11.9179 21 14.2857C21 16.6536 19.0821 18.5714 16.7143 18.5714ZM16.7143 17.1429C18.2929 17.1429 19.5714 15.8643 19.5714 14.2857C19.5714 12.7071 18.2929 11.4286 16.7143 11.4286C15.1357 11.4286 13.8571 12.7071 13.8571 14.2857C13.8571 15.8643 15.1357 17.1429 16.7143 17.1429Z" fill="white"/>
</svg>
